<svg width="150" height="150" fill="none" xmlns="http://www.w3.org/2000/svg"><circle cx="75" cy="75" r="75" fill="#4353FF"/><path d="M102.659 60.38s-8.271 25.938-8.947 28.08a20282.1 20282.1 0 0 0-6.307-48.76c-14.093 0-21.628 10.03-25.61 20.616L50.894 88.523c-.064-2.022-1.53-27.9-1.53-27.9C48.497 47.65 36.614 39.754 27 39.754l11.64 70.55c14.765-.064 22.725-10.034 26.895-20.621 0 0 8.882-22.942 9.248-23.983.064.978 6.375 44.6 6.375 44.6 14.824 0 22.788-9.359 27.072-19.576L129 39.759c-14.641 0-22.359 9.97-26.341 20.617v.004Z" fill="#fff"/></svg>